<svg id="_x33_0" enable-background="new 0 0 62 62.744" height="512" viewBox="0 0 62 62.744" width="512" xmlns="http://www.w3.org/2000/svg"><g><g><g><path d="m37 53c1.1 0 2-.9 2-2s-.9-2-2-2-2 .9-2 2 .9 2 2 2zm0 8-7-10 3-6h8l3 6z" fill="#ecc19c"/></g><g><path d="m43 37v2c0 1.1-.9 2-2 2h-8c-1.1 0-2-.9-2-2v-2z" fill="#aab2bd"/></g><g><path d="m41 41c1.1 0 2 .9 2 2 0 .55-.22 1.05-.59 1.41-.36.37-.86.59-1.41.59h-8c-1.1 0-2-.9-2-2 0-.55.22-1.05.59-1.41.36-.37.86-.59 1.41-.59z" fill="#d3a06c"/></g><g><path d="m33 29h2c-1.1 0-2 .9-2 2 0 .55.22 1.05.59 1.41.36.37.86.59 1.41.59h9.48c-.89 1.26-1.48 2.54-1.48 4h-12c0-3.15-2.76-5.47-5.38-8.56.22-.05.44-.07.66-.07.6 0 1.22.17 1.79.53l2.83-2.83c-.36-.57-.53-1.18-.53-1.79 0-.85.33-1.68.91-2.3-.18.3-.28.65-.28 1.02 0 .55.22 1.05.59 1.41.36.37.86.59 1.41.59-1.1 0-2 .9-2 2 0 .55.22 1.05.59 1.41.36.37.86.59 1.41.59z" fill="#ffeaa7"/></g><g><path d="m39.92 17h-6.92c-2.27-.5-3.35-3.11-2.1-5.07l-2.83-2.83c-1.54.98-3.49.52-4.48-.83 2.86-4.37 7.79-7.27 13.41-7.27 7.3 0 13.46 4.89 15.38 11.57-1.59-1.01-3.45-1.57-5.38-1.57-3.3 0-6.58-.63-9.64-1.86l-.06-.02c-.2-.08-.41-.12-.62-.12h-.06c-.9 0-1.62.72-1.62 1.62 0 .98.35 1.88.95 2.58.59.7 1.43 1.2 2.39 1.36l1.76.29c.52.09.9.54.9 1.07 0 .6-.48 1.08-1.08 1.08z" fill="#ffeaa7"/></g><g><circle cx="15" cy="37" fill="#ff826e" r="2"/></g><g><circle cx="7" cy="41" fill="#ff826e" r="2"/></g><g><circle cx="3" cy="19" fill="#ff826e" r="2"/></g><g><circle cx="7" cy="3" fill="#ff826e" r="2"/></g><g><path d="m13.93 9.1c.57.36 1.19.53 1.79.53 1.5 0 2.92-1.02 3.28-2.63h4c.11.48.31.91.59 1.27.99 1.35 2.94 1.81 4.48.83l2.83 2.83c-1.25 1.96-.17 4.57 2.1 5.07h-6.34c-.83-2.33-3.05-4-5.66-4-3.31 0-6 2.69-6 6s2.69 6 6 6c2.61 0 4.83-1.67 5.66-4h6.34c-.73 0-1.37.39-1.72.98-.58.62-.91 1.45-.91 2.3 0 .61.17 1.22.53 1.79l-2.83 2.83c-.57-.36-1.19-.53-1.79-.53-.22 0-.44.02-.66.07-1.24.25-2.31 1.19-2.62 2.56h-4c-.36-1.61-1.78-2.63-3.28-2.63-.24 0-.48.03-.72.09-.36.07-.73.22-1.07.44l-1.9-1.9-.93-.93c.36-.57.53-1.19.53-1.79 0-1.5-1.02-2.92-2.63-3.28v-2-2c1.61-.36 2.63-1.78 2.63-3.28 0-.6-.17-1.22-.53-1.79z" fill="#a0d468"/></g><g><path d="m25 17c-1.1 0-2 .9-2 2 0-1.1-.9-2-2-2s-2 .9-2 2 .9 2 2 2 2-.9 2-2c0 .55.22 1.05.59 1.41.36.37.86.59 1.41.59h1.66c-.83 2.33-3.05 4-5.66 4-3.31 0-6-2.69-6-6s2.69-6 6-6c2.61 0 4.83 1.67 5.66 4z" fill="#b4dd7f"/></g><g><path d="m55 15h6v16h-6z" fill="#e6e9ed"/></g><g><path d="m35 29h-2c-.55 0-1.05-.22-1.41-.59-.37-.36-.59-.86-.59-1.41 0-1.1.9-2 2-2-.55 0-1.05-.22-1.41-.59-.37-.36-.59-.86-.59-1.41 0-.37.1-.72.28-1.02.35-.59.99-.98 1.72-.98h-6.34-1.66c-.55 0-1.05-.22-1.41-.59-.37-.36-.59-.86-.59-1.41 0-1.1.9-2 2-2h1.66 6.34 6.92c.6 0 1.08-.48 1.08-1.08 0-.53-.38-.98-.9-1.07l-1.76-.29c-.96-.16-1.8-.66-2.39-1.36-.6-.7-.95-1.6-.95-2.58 0-.9.72-1.62 1.62-1.62h.06c.21 0 .42.04.62.12l.06.02c3.06 1.23 6.34 1.86 9.64 1.86 1.93 0 3.79.56 5.38 1.57 1 .64 1.89 1.46 2.62 2.43v16c-2.63 1.32-5.53 2-8.47 2h-2.05-9.48c-.55 0-1.05-.22-1.41-.59-.37-.36-.59-.86-.59-1.41 0-1.1.9-2 2-2z" fill="#f0d0b4"/></g></g><g><path d="m55.461 14c-.653-.787-1.403-1.477-2.235-2.048-2.193-7.052-8.808-11.952-16.226-11.952-5.144 0-9.932 2.301-13.147 6.229l-.051-.229h-5.604l-.174.783c-.169.759-.678 1.365-1.396 1.663-.719.297-1.506.229-2.162-.189l-.676-.431-2.175 2.174h-3.615v-4.184c1.161-.414 2-1.514 2-2.816 0-1.654-1.346-3-3-3s-3 1.346-3 3c0 1.302.839 2.402 2 2.816v6.184h3.961l.296.465c.417.656.486 1.444.188 2.163-.297.719-.903 1.227-1.662 1.396l-.783.174v1.802h-2.184c-.414-1.161-1.514-2-2.816-2-1.654 0-3 1.346-3 3s1.346 3 3 3c1.302 0 2.402-.839 2.816-2h2.184v1.802l.783.174c.759.169 1.365.678 1.663 1.396.297.718.229 1.506-.189 2.162l-.297.466h-3.96v12.184c-1.161.414-2 1.514-2 2.816 0 1.654 1.346 3 3 3s3-1.346 3-3c0-1.302-.839-2.402-2-2.816v-10.184h3.616l2.174 2.174.21-.134v4.144c-1.161.414-2 1.514-2 2.816 0 1.654 1.346 3 3 3s3-1.346 3-3c0-1.302-.839-2.402-2-2.816v-4.787c.212.026.423.072.628.157.718.298 1.227.904 1.396 1.663l.174.783h5.604l.174-.783c.163-.734.65-1.319 1.331-1.626.358.41.718.823 1.068 1.212 1.945 2.163 3.625 4.031 3.625 6.197v2c0 .771.301 1.468.78 2-.48.532-.78 1.229-.78 2 0 1.134.64 2.112 1.571 2.621l-2.732 5.464 8.161 11.659 8.161-11.658-2.732-5.464c.931-.51 1.571-1.488 1.571-2.622 0-.771-.301-1.468-.78-2 .48-.532.78-1.229.78-2v-2c0-.971.336-1.918 1.032-3h1.496c2.997 0 5.995-.694 8.692-2h6.78v-18zm-48.461-12c.551 0 1 .449 1 1s-.449 1-1 1-1-.449-1-1 .449-1 1-1zm-4 18c-.551 0-1-.449-1-1s.449-1 1-1 1 .449 1 1-.449 1-1 1zm4 22c-.551 0-1-.449-1-1s.449-1 1-1 1 .449 1 1-.449 1-1 1zm30-40c5.845 0 11.129 3.444 13.572 8.611-1.14-.393-2.345-.611-3.572-.611-3.189 0-6.309-.601-9.328-1.808-.317-.128-.652-.192-1.054-.192-1.444 0-2.618 1.174-2.618 2.618 0 2.451 1.754 4.521 4.172 4.924l1.759.293c.039.007.069.042.069.082 0 .046-.037.083-.083.083h-6.769c-.725-.184-1.306-.676-1.594-1.372-.298-.718-.229-1.506.188-2.163l.431-.677-3.963-3.962-.677.431c-.655.417-1.443.486-2.162.189-.178-.074-.343-.167-.494-.277 2.826-3.876 7.298-6.169 12.123-6.169zm-22 36c-.551 0-1-.449-1-1s.449-1 1-1 1 .449 1 1-.449 1-1 1zm7.278-8h-2.556c-.445-1.028-1.275-1.857-2.329-2.293-1.053-.436-2.226-.437-3.268-.025l-1.807-1.807c.412-1.041.411-2.215-.025-3.268-.437-1.054-1.266-1.884-2.293-2.329v-2.556c1.028-.445 1.857-1.275 2.293-2.329.436-1.053.437-2.227.025-3.269l1.807-1.807c1.042.413 2.214.412 3.268-.025 1.054-.435 1.884-1.264 2.329-2.292h2.556c.445 1.028 1.275 1.857 2.329 2.293 1.054.437 2.227.438 3.268.025l1.807 1.807c-.412 1.042-.411 2.215.025 3.269.088.213.198.413.317.606h-2.72c-1.152-2.413-3.59-4-6.304-4-3.86 0-7 3.14-7 7s3.14 7 7 7c2.713 0 5.152-1.587 6.304-4h2.723c-.715 1.167-.85 2.603-.345 3.875l-1.807 1.807c-1.041-.412-2.213-.411-3.268.025-1.054.436-1.884 1.265-2.329 2.293zm.722-13.22c-.532-.48-1.229-.78-2-.78-1.654 0-3 1.346-3 3s1.346 3 3 3c.771 0 1.468-.301 2-.78.531.479 1.227.779 1.996.78-.929 1.234-2.399 2-3.996 2-2.757 0-5-2.243-5-5s2.243-5 5-5c1.597 0 3.067.766 3.996 2-.769.001-1.465.301-1.996.78zm-1 2.22c0 .551-.449 1-1 1s-1-.449-1-1 .449-1 1-1 1 .449 1 1zm10 20v-1h10v1c0 .551-.449 1-1 1h-8c-.551 0-1-.449-1-1zm10 4c0 .551-.449 1-1 1h-8c-.551 0-1-.449-1-1s.449-1 1-1h8c.551 0 1 .449 1 1zm-6 8c0-.551.449-1 1-1s1 .449 1 1-.449 1-1 1-1-.449-1-1zm2 6.828v-4.012c1.161-.414 2-1.514 2-2.816 0-1.654-1.346-3-3-3s-3 1.346-3 3c0 1.302.839 2.402 2 2.816v4.012l-4.839-6.913 2.457-4.915h6.764l2.458 4.915zm4.083-21.828h-10.168c-.357-2.236-1.868-4.086-3.554-5.977l1.871-1.871c.354.848 1.09 1.488 1.989 1.732-.14.346-.221.721-.221 1.116 0 1.654 1.346 3 3 3h7.728c-.326.676-.539 1.337-.645 2zm-7.083-4c-.551 0-1-.449-1-1s.449-1 1-1h5v-2h-7c-.551 0-1-.449-1-1s.449-1 1-1h7v-2h-7c-.551 0-1-.449-1-1s.449-1 1-1h7v-2h-15c-.551 0-1-.449-1-1s.449-1 1-1h14.917c1.148 0 2.083-.935 2.083-2.083 0-1.022-.732-1.886-1.741-2.054l-1.759-.293c-1.449-.242-2.5-1.483-2.5-2.952 0-.341.277-.618.677-.618.086 0 .17.016.309.072 3.2 1.279 6.569 1.928 10.014 1.928 2.714 0 5.302 1.258 7 3.364v14.998c-2.335 1.069-4.903 1.638-7.472 1.638zm25-2h-4v-14h4z"/><path d="m50 54h2v2h-2z"/><path d="m54 54h2v2h-2z"/><path d="m58 54h2v2h-2z"/><path d="m48 50h14v2h-14z"/><path d="m48 46h14v2h-14z"/><path d="m48 42h14v2h-14z"/></g></g></svg>