<svg id="Capa_1" enable-background="new 0 0 512.002 512.002" height="512" viewBox="0 0 512.002 512.002" width="512" xmlns="http://www.w3.org/2000/svg"><g><g><path d="m465.131 246.896v-145.776c0-12.927-10.476-23.403-23.403-23.403h-61.654v27.715h-174.045v-27.715h-61.644c-12.927 0-23.403 10.476-23.403 23.403v337.565c0 10.661 8.253 20.151 20.491 20.151 11.316 0 20.491-9.175 20.491-20.501v-41.643c0-15.994 12.342-27.155 27.155-27.155 14.988 0 27.145 12.157 27.145 27.155v105.308h225.464c12.927 0 23.403-10.476 23.403-23.403v-143.727z" fill="#eaf0f0"/></g><g><path d="m350.203 50.264c-8.643 0-16.318-5.455-19.235-13.591-5.576-15.55-20.445-26.673-37.913-26.673s-32.337 11.123-37.912 26.673c-2.917 8.136-10.592 13.591-19.235 13.591h-29.876v55.167h174.047v-55.167z" fill="#868eaf"/></g><g><path d="m216.27 502v-105.308c0-14.996-12.157-27.153-27.153-27.153-14.678 0-27.153 11.159-27.153 27.153v41.646c0 11.318-9.175 20.494-20.494 20.494-11.218 0-20.494-8.422-20.494-20.494v-110.363l-67.291 97.744c-7.538 10.981-8.88 25.073-3.55 37.28l16.429 39.001z" fill="#ffdad5"/></g><g><path d="m475.131 101.12c0-18.418-14.984-33.403-33.402-33.403h-51.649v-17.453c0-5.523-4.478-10-10-10h-29.877c-4.381 0-8.328-2.8-9.822-6.966-7.141-19.917-26.159-33.298-47.326-33.298-21.166 0-40.185 13.381-47.325 33.298-1.494 4.167-5.441 6.966-9.822 6.966h-29.876c-5.522 0-10 4.477-10 10v17.454h-51.646c-18.419 0-33.403 14.984-33.403 33.403v223.736l-65.544 95.203c-9.542 13.903-11.221 31.423-4.495 46.881l16.404 38.941c1.61 3.822 5.317 6.121 9.22 6.12 1.295 0 2.611-.253 3.878-.787 5.09-2.144 7.478-8.008 5.334-13.098l-16.43-39.001c-.017-.04-.034-.08-.052-.119-3.975-9.104-2.991-19.429 2.622-27.608l49.056-71.254v78.204c0 16.889 13.573 30.498 30.498 30.498 16.812 0 30.491-13.683 30.491-30.501v-41.643c0-9.556 7.607-17.153 17.151-17.153 9.349 0 17.148 7.814 17.148 17.153v105.307c0 5.523 4.478 10 10 10h225.464c18.418 0 33.402-14.984 33.402-33.403v-143.727c0-5.523-4.478-10-10-10s-10 4.477-10 10v143.728c0 7.391-6.013 13.403-13.402 13.403h-215.458v-95.308c0-20.214-16.92-37.155-37.149-37.155-20.496 0-37.157 16.687-37.157 37.155v41.646c0 5.786-4.708 10.494-10.494 10.494-5.822 0-10.404-4.475-10.486-10.335v-337.378c0-7.39 6.013-13.403 13.403-13.403h51.644v17.715c0 5.523 4.478 10 10 10h174.045c5.456 0 10.005-4.553 10.005-10.002v-17.713h51.649c7.39 0 13.402 6.013 13.402 13.403v145.776c0 5.523 4.478 10 10 10s10-4.477 10-10v-145.776zm-259.1-40.856h19.876c12.801 0 24.313-8.124 28.648-20.216 4.301-11.991 15.753-20.048 28.5-20.048s24.2 8.056 28.499 20.048c4.336 12.092 15.85 20.216 28.648 20.216h19.877l-.005 35.167h-154.043z"/><path d="m302.29 48.93c-2.096-5.026-8.017-7.503-13.06-5.41-5.026 2.086-7.502 8.025-5.41 13.06 2.089 5.026 8.027 7.498 13.06 5.41 5.025-2.086 7.506-8.029 5.41-13.06z"/><path d="m229.646 278.506-25.684 25.684-10.015-10.015c-3.905-3.905-10.235-3.905-14.143 0-3.905 3.905-3.905 10.237 0 14.142l17.086 17.086c1.875 1.875 4.419 2.929 7.071 2.929s5.195-1.054 7.071-2.929l32.755-32.754c3.905-3.905 3.905-10.237 0-14.142-3.903-3.906-10.233-3.906-14.141-.001z"/><path d="m243.788 177.04c-3.904-3.905-10.234-3.905-14.143 0l-25.684 25.684-10.015-10.016c-3.905-3.905-10.235-3.905-14.143 0-3.905 3.905-3.905 10.237 0 14.142l17.086 17.087c1.875 1.875 4.419 2.929 7.071 2.929s5.195-1.054 7.071-2.929l32.755-32.754c3.907-3.906 3.907-10.238.002-14.143z"/><path d="m399.11 164.186h-106.053c-5.522 0-10 4.477-10 10s4.478 10 10 10h106.053c5.522 0 10-4.477 10-10s-4.477-10-10-10z"/><path d="m293.057 227.338h50.361c5.522 0 10-4.477 10-10s-4.478-10-10-10h-50.361c-5.522 0-10 4.477-10 10s4.477 10 10 10z"/><path d="m399.11 271.221h-106.053c-5.522 0-10 4.477-10 10s4.478 10 10 10h106.053c5.522 0 10-4.477 10-10s-4.477-10-10-10z"/><path d="m293.057 334.373h50.361c5.522 0 10-4.477 10-10s-4.478-10-10-10h-50.361c-5.522 0-10 4.477-10 10s4.477 10 10 10z"/><path d="m409.11 388.256c0-5.523-4.478-10-10-10h-106.053c-5.522 0-10 4.477-10 10s4.478 10 10 10h106.053c5.523 0 10-4.477 10-10z"/><path d="m293.057 421.407c-5.522 0-10 4.477-10 10s4.478 10 10 10h50.361c5.522 0 10-4.477 10-10s-4.478-10-10-10z"/><path d="m473.441 284.33c-4.951-7.42-16.891-4.78-18.205 4.087-1.335 9.01 9.662 14.967 16.483 8.981 3.752-3.293 4.442-8.917 1.722-13.068z"/></g></g></svg>