<svg id="Layer_1" enable-background="new 0 0 128 128" viewBox="0 0 128 128" xmlns="http://www.w3.org/2000/svg"><g><g><path d="m47.1 89.1c-5.7 6.1-8.8 14.2-8.8 22.5v3.2l5.8-1.5c14.7-3.8 24.9-17 25-32.1h1.4c8.1 0 15.8-3.3 21.4-9.1s13.3-9.1 21.4-9.1h12.4c.5-2.6.7-5.2.7-7.9 0-5.3-4.3-9.7-9.7-9.7h-69.3c-10.4 0-19.9-6.2-24.1-15.7 5.5-.7 9.7-5.5 9.7-11.1v-5.4h-5.4c-4.4 0-8.4 2.6-10.3 6.6-1.8-4-5.8-6.6-10.3-6.6h-5.2v5.4c0 5.8 4.5 10.7 10.3 11.2l13.9 34c4.2 10.4 11.6 19.2 21.1 25.3" fill="#159ce4"/><path d="m125.5 63c-.6 3-1.5 5.9-2.7 8.7-.5 1.2-1.1 2.4-1.7 3.5-.8 1.5-1.7 2.9-2.6 4.3-.8 1.2-1.8 2.4-2.8 3.5-1.3 1.6-2.8 3-4.4 4.3-7.7 6.6-17.4 10.2-27.6 10.2h-7.7c-3.6 0-7.2-.4-10.8-1.1 2.4-4.7 3.7-9.9 3.7-15.2h1.4c8.1 0 15.8-3.3 21.4-9.1s13.3-9.1 21.4-9.1z" fill="#f5f5f5"/></g><g><circle cx="90.8" cy="58.3" r="3.3"/><path d="m62 47.2h5.6c1 0 1.8-.8 1.8-1.8s-.8-1.8-1.8-1.8h-5.6c-1 0-1.8.8-1.8 1.8s.9 1.8 1.8 1.8z"/><path d="m116.6 43.7h-34.3c-1 0-1.8.8-1.8 1.8s.8 1.8 1.8 1.8h34.3c4.4 0 7.9 3.5 7.9 7.9 0 2-.2 4.1-.5 6.1h-10.9c-8.5 0-16.7 3.5-22.7 9.7-.7.7-.7 1.8 0 2.5s1.8.7 2.5 0c5.3-5.5 12.5-8.6 20.1-8.6h10.2c-.6 2.4-1.4 4.7-2.4 7h-15.3c-1 0-1.8.8-1.8 1.8s.8 1.8 1.8 1.8h13.6c-.8 1.5-1.8 2.9-2.8 4.3h-20.9c-1 0-1.8.8-1.8 1.8s.8 1.8 1.8 1.8h18c-1.5 1.6-3.1 3-4.8 4.4h-26.6c-1 0-1.8.8-1.8 1.8s.8 1.8 1.8 1.8h21.3c-6 3.2-12.6 4.9-19.4 4.9h-7.7c-2.8 0-5.5-.2-8.2-.7 1.7-3.8 2.6-7.9 2.8-12.1 3.5 0 6.9-.6 10.1-1.8.9-.3 1.4-1.3 1.1-2.2s-1.3-1.4-2.2-1.1c-3 1.1-6.1 1.6-9.3 1.6h-1.5c-1 0-1.7.8-1.8 1.7 0 14.3-9.7 26.9-23.6 30.4l-3.6.9v-1c0-7.9 3-15.5 8.4-21.3 0 0 0 0 0-.1.9-.9 1.8-1.8 2.7-2.6l9.5-8.1c.7-.6.8-1.7.2-2.5-.6-.7-1.7-.8-2.4-.2l-9.5 8.1c-.7.6-1.4 1.2-2 1.9-8.6-5.8-15.4-14-19.3-23.7l-13.9-34c-.2-.6-.8-1-1.5-1.1-4.9-.4-8.7-4.5-8.7-9.5v-3.6h3.6c3.7 0 7.1 2.2 8.7 5.6.4.9 1.4 1.3 2.3.9.4-.2.7-.5.9-.9 1.5-3.4 4.9-5.6 8.7-5.6h3.6v3.6c0 4.7-3.5 8.7-8.2 9.4-1 .1-1.6 1-1.5 2 0 .2.1.3.1.5 4.5 10.2 14.6 16.7 25.7 16.7 1 0 1.8-.8 1.8-1.8s-.8-1.8-1.8-1.8c-9 0-17.3-4.9-21.6-12.8 5.3-1.8 8.9-6.7 8.9-12.3v-5.4c0-1-.8-1.8-1.7-1.8h-5.4c-4 0-7.8 1.9-10.3 5-2.5-3.2-6.2-5-10.3-5h-5.2c-1 0-1.7.8-1.8 1.7v5.4c0 6.3 4.6 11.7 10.8 12.8l13.5 33.1c4.1 10.1 11.1 18.8 20.1 25-5.1 6.2-7.9 14.1-7.9 22.1v3.2c0 1.1 1 2 2.2 1.7 1.4-.4 5.8-1.5 5.8-1.5 9.2-2.4 17.1-8.4 21.7-16.7 3.3.6 6.6.9 9.9.9h7.7c24.4 0 44.1-19.8 44.2-44.2 0-6.3-5.1-11.4-11.4-11.4z"/></g></g></svg>